<svg xmlns="http://www.w3.org/2000/svg" viewBox="0 0 630 630">
  <rect width="630" height="630" fill="#F7DF1E"/>
  <path d="M423.2 492.19c13.11 21.34 30.16 37.08 60.32 37.08 25.33 0 41.56-12.67 41.56-30.16 0-20.98-16.65-28.44-44.56-40.7l-15.28-6.57c-44.07-18.77-73.4-42.32-73.4-91.95 0-45.76 34.84-80.56 89.27-80.56 38.73 0 66.56 13.48 86.55 48.82l-47.37 30.43c-10.44-18.77-21.75-26.15-39.18-26.15-17.82 0-29.14 11.32-29.14 26.15 0 18.31 11.32 25.78 37.54 37.08l15.28 6.57c51.96 22.28 81.29 45.02 81.29 96.08 0 54.99-43.22 85.16-101.2 85.16-56.69 0-93.27-27.05-111.15-62.5l48.96-28.33zm-209.4 5.23c9.56 16.98 18.26 31.35 39.18 31.35 19.99 0 32.64-7.82 32.64-38.22V288.5h60.93v203.7c0 63.1-37.05 91.95-91.13 91.95-48.82 0-77.14-25.33-91.66-55.99l50.04-30.73z"/>
</svg>
